<svg xmlns="http://www.w3.org/2000/svg" xmlns:xlink="http://www.w3.org/1999/xlink" viewBox="0 0 586.09 501.85"><defs><style>.cls-1{fill:url(#linear-gradient);}.cls-2{fill:url(#linear-gradient-2);}.cls-3{fill:url(#Gradiente_sem_nome_11);}.cls-4{fill:url(#linear-gradient-3);}.cls-5{fill:url(#Gradiente_sem_nome_11-2);}.cls-6{fill:url(#linear-gradient-4);}.cls-7{fill:url(#linear-gradient-5);}</style><linearGradient id="linear-gradient" x1="248.94" y1="-18001.08" x2="586.09" y2="-18001.08" gradientTransform="matrix(1, 0, 0, -1, 0, -17750.15)" gradientUnits="userSpaceOnUse"><stop offset="0" stop-color="#80d8ff"/><stop offset="0.16" stop-color="#76cdf9"/><stop offset="0.45" stop-color="#5aafe9"/><stop offset="0.82" stop-color="#2d7fce"/><stop offset="1" stop-color="#1565c0"/></linearGradient><linearGradient id="linear-gradient-2" x1="0" y1="-18001.08" x2="345.42" y2="-18001.08" xlink:href="#linear-gradient"/><linearGradient id="Gradiente_sem_nome_11" x1="230.43" y1="303.25" x2="163.62" y2="236.44" gradientUnits="userSpaceOnUse"><stop offset="0" stop-color="#80d8ff"/><stop offset="0.12" stop-color="#76cdf9"/><stop offset="0.34" stop-color="#5aafe9"/><stop offset="0.62" stop-color="#2d7fce"/><stop offset="0.76" stop-color="#1565c0"/></linearGradient><linearGradient id="linear-gradient-3" x1="130.74" y1="304.56" x2="244.4" y2="304.56" gradientTransform="matrix(1, 0, 0, 1, 0, 0)" xlink:href="#linear-gradient"/><linearGradient id="Gradiente_sem_nome_11-2" x1="315.65" y1="252.83" x2="422.8" y2="252.83" xlink:href="#Gradiente_sem_nome_11"/><linearGradient id="linear-gradient-4" x1="408.8" y1="208.73" x2="453.07" y2="208.73" gradientTransform="matrix(1, 0, 0, 1, 0, 0)" xlink:href="#linear-gradient"/><linearGradient id="linear-gradient-5" x1="281.68" y1="252.23" x2="325.95" y2="252.23" gradientTransform="matrix(1, 0, 0, 1, 0, 0)" xlink:href="#linear-gradient"/></defs><g id="Camada_2" data-name="Camada 2"><g id="Camada_1-2" data-name="Camada 1"><path class="cls-1" d="M473.06,37.1V0h61.19q3.24,0,9.11,3.58t5.86,16V195.27a50.16,50.16,0,0,0,1.3,10.09,39.54,39.54,0,0,0,4.23,11.39,33.55,33.55,0,0,0,7.49,9.12c3,2.6,19.07,3.9,23.85,3.9v33.85c-8.25.87-26.57,4.88-30.69,12a46.69,46.69,0,0,0-6.18,23.76v182.9q0,11.06-4.88,15.3c-3.26,2.81-6.62,4.23-10.09,4.23H248.94V464.74H508.86v-177q0-7.15,3.26-19.2t13.67-21.16q-10.42-9.1-13.67-20.83T508.86,207V37.1Z"/><path class="cls-2" d="M77.23,37.1V207q0,7.8-3.25,19.52T60.31,247.34Q70.72,256.46,74,268.5t3.25,19.2v177H113v37.11H51.85c-3.47,0-6.84-1.42-10.09-4.23s-4.89-7.93-4.89-15.3V299.42a46.69,46.69,0,0,0-6.18-23.76c-4.12-7.16-22.44-11.17-30.69-12V229.77c4.78,0,20.83-1.3,23.86-3.9a33.52,33.52,0,0,0,7.48-9.12,39.25,39.25,0,0,0,4.23-11.39,50.16,50.16,0,0,0,1.3-10.09V19.53q0-12.36,5.86-15.95T51.85,0H345.42V37.1Z"/><rect class="cls-3" x="149.66" y="250.4" width="94.74" height="38.88"/><polygon class="cls-4" points="244.4 196.57 244.4 160.67 130.74 160.67 130.74 448.45 175 448.45 175 196.57 244.4 196.57"/><rect class="cls-5" x="315.65" y="232.47" width="107.15" height="40.72"/><polygon class="cls-6" points="408.8 63.54 408.8 170.17 408.8 231.95 408.8 273.08 408.8 321.27 408.8 353.92 453.07 353.92 453.07 63.54 408.8 63.54"/><polygon class="cls-7" points="325.95 231.95 325.95 170.17 325.95 150.54 281.68 150.54 281.68 353.92 325.95 353.92 325.95 321.27 325.95 273.08 325.95 231.95"/></g></g></svg>