<?xml version="1.0" encoding="utf-8"?>
<!-- Generator: Adobe Illustrator 24.1.2, SVG Export Plug-In . SVG Version: 6.00 Build 0)  -->
<svg version="1.1" id="Camada_1" xmlns="http://www.w3.org/2000/svg" xmlns:xlink="http://www.w3.org/1999/xlink" x="0px" y="0px"
	 viewBox="0 0 35.9 34.5" style="enable-background:new 0 0 35.9 34.5;" xml:space="preserve">
<style type="text/css">
	.st0{fill-rule:evenodd;clip-rule:evenodd;fill:#FF872C;}
	.st1{fill:#FF872C;}
</style>
<path class="st0" d="M26.7,11.3c0.1,0.2,0.2,0.4,0.3,0.5c5,1.3,8.6,5.8,8.6,11c0,6.3-5.3,11.4-11.7,11.4c-3.4,0-6.4-1.4-8.6-3.6H7.2
	c-1.8,0-3.2-1.4-3.2-3.1c0-1,0.5-1.9,1.2-2.4C4.5,24.5,4,23.7,4,22.7c0-1,0.5-1.9,1.2-2.4C4.5,19.7,4,18.8,4,17.9s0.5-1.9,1.2-2.4
	C4.5,14.9,4,14,4,13c0-1.7,1.4-3.1,3.2-3.1H9C8.6,9.4,8.4,8.8,8.4,8.2c0-0.6,0.2-1.2,0.6-1.7H3.4C1.7,6.4,0.3,5,0.3,3.3
	c0-1.7,1.4-3.1,3.2-3.1h16.9c1.8,0,3.2,1.4,3.2,3.1c0,0.6-0.2,1.2-0.6,1.7h5.5c1.8,0,3.2,1.4,3.2,3.1c0,1.7-1.4,3.1-3.2,3.1H26.7z
	 M30.3,8.2c0-1-0.8-1.7-1.8-1.7H11.6c-1,0-1.8,0.8-1.8,1.7s0.8,1.7,1.8,1.7h12.5h4.4C29.5,9.9,30.3,9.1,30.3,8.2z M1.6,3.3
	c0,1,0.8,1.7,1.8,1.7h16.9c1,0,1.8-0.8,1.8-1.7c0-1-0.8-1.7-1.8-1.7H3.4C2.4,1.6,1.6,2.4,1.6,3.3z M24.1,11.3H7.2
	c-1,0-1.8,0.8-1.8,1.7s0.8,1.7,1.8,1.7h8.4c2.1-2.1,5.1-3.4,8.3-3.4c0.3,0,0.7,0,1,0C24.6,11.3,24.4,11.3,24.1,11.3z M14.4,16.1H7.2
	c-1,0-1.8,0.8-1.8,1.7c0,1,0.8,1.7,1.8,1.7h5.5C13,18.3,13.6,17.2,14.4,16.1z M12.3,20.9H7.2c-1,0-1.8,0.8-1.8,1.7
	c0,1,0.8,1.7,1.8,1.7h5.1c-0.1-0.5-0.1-1.1-0.1-1.6C12.1,22.2,12.2,21.6,12.3,20.9z M5.4,27.5c0,1,0.8,1.7,1.8,1.7h7
	c-0.7-1.1-1.3-2.2-1.7-3.5H7.2C6.2,25.8,5.4,26.6,5.4,27.5z M13.5,22.8c0,5.6,4.7,10.1,10.4,10.1c5.7,0,10.4-4.5,10.4-10.1
	s-4.7-10.1-10.4-10.1C18.2,12.7,13.5,17.3,13.5,22.8z M22.1,20.5c0,0.8,0.8,1.5,1.8,1.5c1.9,0,3.4,1.4,3.4,3c0,1.4-1.1,2.6-2.6,2.9
	v0.3c0,0.4-0.4,0.8-0.8,0.8c-0.4,0-0.8-0.3-0.8-0.8V28c-1.5-0.3-2.6-1.5-2.6-2.9c0-0.4,0.4-0.8,0.8-0.8s0.8,0.3,0.8,0.8
	c0,0.8,0.8,1.5,1.8,1.5c1,0,1.8-0.7,1.8-1.5s-0.8-1.5-1.8-1.5c-1.9,0-3.4-1.4-3.4-3c0-1.4,1.1-2.6,2.6-2.9v-0.4
	c0-0.4,0.4-0.8,0.8-0.8c0.4,0,0.8,0.3,0.8,0.8v0.4c1.5,0.3,2.6,1.5,2.6,2.9c0,0.4-0.4,0.8-0.8,0.8c-0.4,0-0.8-0.3-0.8-0.8
	c0-0.8-0.8-1.5-1.8-1.5C22.9,19,22.1,19.7,22.1,20.5z"/>
<path class="st1" d="M27,11.8l-0.2,0.1l0,0.1l0.1,0L27,11.8z M26.7,11.3V11h-0.5l0.3,0.4L26.7,11.3z M15.3,30.6l0.2-0.2l-0.1-0.1
	h-0.1V30.6z M5.2,25.1l0.2,0.2l0.3-0.2l-0.3-0.2L5.2,25.1z M5.2,20.3l0.2,0.2l0.3-0.2l-0.3-0.2L5.2,20.3z M5.2,15.4l0.2,0.2l0.3-0.2
	l-0.3-0.2L5.2,15.4z M9,9.9v0.3h0.5L9.2,9.8L9,9.9z M9,6.4l0.2,0.1l0.3-0.4H9V6.4z M23,5.1l-0.2-0.1l-0.3,0.4H23V5.1z M15.6,14.8V15
	h0.1l0.1-0.1L15.6,14.8z M24.9,11.4l0,0.2l0.1-0.5L24.9,11.4z M14.4,16.1l0.2,0.2l0.3-0.4h-0.5V16.1z M12.6,19.6v0.3h0.2l0.1-0.2
	L12.6,19.6z M12.3,20.9l0.2,0l0-0.3h-0.3V20.9z M12.3,24.4v0.3h0.3l0-0.3L12.3,24.4z M14.2,29.3v0.3h0.5l-0.3-0.4L14.2,29.3z
	 M12.5,25.8l0.2-0.1l-0.1-0.2h-0.2V25.8z M24.7,28l-0.1-0.2l-0.2,0V28H24.7z M23.1,28h0.3v-0.2l-0.2,0L23.1,28z M23.1,17.6l0.1,0.2
	l0.2,0v-0.2H23.1z M24.7,17.6h-0.3v0.2l0.2,0L24.7,17.6z M27.3,11.7c-0.1-0.2-0.2-0.4-0.3-0.6l-0.4,0.3c0.1,0.2,0.2,0.3,0.3,0.5
	L27.3,11.7z M35.9,22.8c0-5.4-3.7-9.9-8.8-11.2L27,12.1c4.9,1.3,8.4,5.6,8.4,10.8H35.9z M23.9,34.5c6.6,0,12-5.2,12-11.7h-0.5
	C35.4,29,30.2,34,23.9,34V34.5z M15.1,30.8c2.2,2.3,5.3,3.7,8.8,3.7V34c-3.3,0-6.3-1.4-8.4-3.6L15.1,30.8z M7.2,30.9h8.1v-0.5H7.2
	V30.9z M3.7,27.5c0,1.8,1.5,3.3,3.4,3.3v-0.5c-1.6,0-2.9-1.3-2.9-2.8H3.7z M5,24.9c-0.8,0.6-1.3,1.6-1.3,2.6h0.5
	c0-0.9,0.4-1.7,1.1-2.2L5,24.9z M3.7,22.7c0,1.1,0.5,2,1.3,2.6l0.3-0.4c-0.7-0.5-1.1-1.3-1.1-2.2H3.7z M5,20.1
	c-0.8,0.6-1.3,1.6-1.3,2.6h0.5c0-0.9,0.4-1.7,1.1-2.2L5,20.1z M3.7,17.9c0,1.1,0.5,2,1.3,2.6l0.3-0.4c-0.7-0.5-1.1-1.3-1.1-2.2H3.7z
	 M5,15.2c-0.8,0.6-1.3,1.6-1.3,2.6h0.5c0-0.9,0.4-1.7,1.1-2.2L5,15.2z M3.7,13c0,1.1,0.5,2,1.3,2.6l0.3-0.4
	c-0.7-0.5-1.1-1.3-1.1-2.2H3.7z M7.2,9.7c-1.9,0-3.4,1.5-3.4,3.3h0.5c0-1.6,1.3-2.8,2.9-2.8V9.7z M9,9.7H7.2v0.5H9V9.7z M8.2,8.2
	c0,0.7,0.2,1.4,0.6,1.9l0.4-0.3c-0.3-0.5-0.5-1-0.5-1.6H8.2z M8.8,6.3C8.4,6.8,8.2,7.5,8.2,8.2h0.5c0-0.6,0.2-1.1,0.5-1.6L8.8,6.3z
	 M3.4,6.7H9V6.2H3.4V6.7z M0,3.3c0,1.8,1.5,3.3,3.4,3.3V6.2c-1.6,0-2.9-1.3-2.9-2.8H0z M3.4,0C1.5,0,0,1.5,0,3.3h0.5
	c0-1.6,1.3-2.8,2.9-2.8V0z M20.4,0H3.4v0.5h16.9V0z M23.8,3.3c0-1.8-1.5-3.3-3.4-3.3v0.5c1.6,0,2.9,1.3,2.9,2.8H23.8z M23.2,5.2
	c0.4-0.5,0.6-1.2,0.6-1.9h-0.5c0,0.6-0.2,1.1-0.5,1.6L23.2,5.2z M28.5,4.8H23v0.5h5.5V4.8z M31.9,8.2c0-1.8-1.5-3.3-3.4-3.3v0.5
	c1.6,0,2.9,1.3,2.9,2.8H31.9z M28.5,11.5c1.9,0,3.4-1.5,3.4-3.3h-0.5c0,1.6-1.3,2.8-2.9,2.8V11.5z M26.7,11.5h1.8V11h-1.8V11.5z
	 M28.5,6.7c0.9,0,1.5,0.7,1.5,1.5h0.5c0-1.1-0.9-2-2-2V6.7z M11.6,6.7h16.9V6.2H11.6V6.7z M10,8.2c0-0.8,0.7-1.5,1.5-1.5V6.2
	c-1.1,0-2,0.9-2,2H10z M11.6,9.7C10.7,9.7,10,9,10,8.2H9.5c0,1.1,0.9,2,2,2V9.7z M24.1,9.7H11.6v0.5h12.5V9.7z M28.5,9.7h-4.4v0.5
	h4.4V9.7z M30.1,8.2c0,0.8-0.7,1.5-1.5,1.5v0.5c1.1,0,2-0.9,2-2H30.1z M3.4,4.8c-0.9,0-1.5-0.7-1.5-1.5H1.4c0,1.1,0.9,2,2,2V4.8z
	 M20.4,4.8H3.4v0.5h16.9V4.8z M21.9,3.3c0,0.8-0.7,1.5-1.5,1.5v0.5c1.1,0,2-0.9,2-2H21.9z M20.4,1.8c0.9,0,1.5,0.7,1.5,1.5h0.5
	c0-1.1-0.9-2-2-2V1.8z M3.4,1.8h16.9V1.3H3.4V1.8z M1.9,3.3c0-0.8,0.7-1.5,1.5-1.5V1.3c-1.1,0-2,0.9-2,2H1.9z M7.2,11.5h16.9V11H7.2
	V11.5z M5.6,13c0-0.8,0.7-1.5,1.5-1.5V11c-1.1,0-2,0.9-2,2H5.6z M7.2,14.5c-0.9,0-1.5-0.7-1.5-1.5H5.1c0,1.1,0.9,2,2,2V14.5z
	 M15.6,14.5H7.2V15h8.4V14.5z M23.9,11.2c-3.3,0-6.3,1.3-8.5,3.4l0.3,0.4c2.1-2,5-3.3,8.1-3.3V11.2z M24.9,11.2c-0.3,0-0.7,0-1,0
	v0.5c0.3,0,0.7,0,1,0L24.9,11.2z M24.1,11.5c0.2,0,0.5,0.1,0.7,0.2l0.2-0.5c-0.3-0.1-0.6-0.2-0.9-0.2V11.5z M7.2,16.4h7.2v-0.5H7.2
	V16.4z M5.6,17.9c0-0.8,0.7-1.5,1.5-1.5v-0.5c-1.1,0-2,0.9-2,2H5.6z M7.2,19.4c-0.9,0-1.5-0.7-1.5-1.5H5.1c0,1.1,0.9,2,2,2V19.4z
	 M12.6,19.4H7.2v0.5h5.5V19.4z M14.2,16c-0.8,1.1-1.4,2.3-1.8,3.6l0.5,0.1c0.4-1.2,1-2.4,1.7-3.4L14.2,16z M7.2,21.2h5.1v-0.5H7.2
	V21.2z M5.6,22.7c0-0.8,0.7-1.5,1.5-1.5v-0.5c-1.1,0-2,0.9-2,2H5.6z M7.2,24.2c-0.9,0-1.5-0.7-1.5-1.5H5.1c0,1.1,0.9,2,2,2V24.2z
	 M12.3,24.2H7.2v0.5h5.1V24.2z M11.9,22.8c0,0.6,0,1.1,0.1,1.6l0.5-0.1c-0.1-0.5-0.1-1-0.1-1.6H11.9z M12.1,20.9
	c-0.1,0.6-0.2,1.3-0.2,1.9h0.5c0-0.6,0.1-1.2,0.2-1.8L12.1,20.9z M7.2,29c-0.9,0-1.5-0.7-1.5-1.5H5.1c0,1.1,0.9,2,2,2V29z M14.2,29
	h-7v0.5h7V29z M12.3,25.9c0.4,1.3,0.9,2.5,1.7,3.6l0.4-0.3c-0.7-1-1.3-2.2-1.6-3.4L12.3,25.9z M7.2,26h5.4v-0.5H7.2V26z M5.6,27.5
	c0-0.8,0.7-1.5,1.5-1.5v-0.5c-1.1,0-2,0.9-2,2H5.6z M23.9,32.7c-5.6,0-10.1-4.4-10.1-9.8h-0.5c0,5.7,4.8,10.3,10.6,10.3V32.7z
	 M34,22.8c0,5.4-4.5,9.8-10.1,9.8v0.5c5.8,0,10.6-4.6,10.6-10.3H34z M23.9,13c5.6,0,10.1,4.4,10.1,9.8h0.5c0-5.7-4.8-10.3-10.6-10.3
	V13z M13.8,22.8c0-5.4,4.5-9.8,10.1-9.8v-0.5c-5.8,0-10.6,4.6-10.6,10.3H13.8z M23.9,21.8c-0.9,0-1.5-0.6-1.5-1.2h-0.5
	c0,1,0.9,1.7,2,1.7V21.8z M27.5,25c0-1.8-1.6-3.3-3.6-3.3v0.5c1.7,0,3.1,1.3,3.1,2.8H27.5z M24.7,28.2c1.6-0.3,2.8-1.6,2.8-3.2H27
	c0,1.3-1,2.4-2.4,2.7L24.7,28.2z M24.9,28.3V28h-0.5v0.3H24.9z M23.9,29.4c0.6,0,1-0.5,1-1h-0.5c0,0.3-0.2,0.5-0.5,0.5V29.4z
	 M22.8,28.3c0,0.6,0.5,1,1,1v-0.5c-0.3,0-0.5-0.2-0.5-0.5H22.8z M22.8,28v0.3h0.5V28H22.8z M20.3,25c0,1.6,1.2,2.8,2.8,3.2l0.1-0.5
	c-1.4-0.3-2.4-1.4-2.4-2.7H20.3z M21.3,24c-0.6,0-1,0.5-1,1h0.5c0-0.3,0.2-0.5,0.5-0.5V24z M22.4,25c0-0.6-0.5-1-1-1v0.5
	c0.3,0,0.5,0.2,0.5,0.5H22.4z M23.9,26.3c-0.9,0-1.5-0.6-1.5-1.2h-0.5c0,1,0.9,1.7,2,1.7V26.3z M25.4,25c0,0.6-0.6,1.2-1.5,1.2v0.5
	c1.1,0,2-0.7,2-1.7H25.4z M23.9,23.8c0.9,0,1.5,0.6,1.5,1.2h0.5c0-1-0.9-1.7-2-1.7V23.8z M20.3,20.5c0,1.8,1.6,3.3,3.6,3.3v-0.5
	c-1.7,0-3.1-1.3-3.1-2.8H20.3z M23,17.3c-1.6,0.3-2.8,1.6-2.8,3.2h0.5c0-1.3,1-2.4,2.4-2.7L23,17.3z M22.8,17.2v0.4h0.5v-0.4H22.8z
	 M23.9,16.1c-0.6,0-1,0.5-1,1h0.5c0-0.3,0.2-0.5,0.5-0.5V16.1z M24.9,17.2c0-0.6-0.5-1-1-1v0.5c0.3,0,0.5,0.2,0.5,0.5H24.9z
	 M24.9,17.6v-0.4h-0.5v0.4H24.9z M27.5,20.5c0-1.6-1.2-2.8-2.8-3.2l-0.1,0.5c1.4,0.3,2.4,1.4,2.4,2.7H27.5z M26.4,21.6
	c0.6,0,1-0.5,1-1H27c0,0.3-0.2,0.5-0.5,0.5V21.6z M25.4,20.5c0,0.6,0.5,1,1,1v-0.5c-0.3,0-0.5-0.2-0.5-0.5H25.4z M23.9,19.3
	c0.9,0,1.5,0.6,1.5,1.2h0.5c0-1-0.9-1.7-2-1.7V19.3z M22.4,20.5c0-0.6,0.6-1.2,1.5-1.2v-0.5c-1.1,0-2,0.7-2,1.7H22.4z"/>
</svg>
