<svg xmlns="http://www.w3.org/2000/svg" xmlns:xlink="http://www.w3.org/1999/xlink" viewBox="0 0 2010.23 350.96"><defs><style>.cls-1{fill:#80d8ff;}.cls-2{fill:url(#linear-gradient);}.cls-3{fill:url(#linear-gradient-2);}.cls-4{fill:url(#Gradiente_sem_nome_11);}.cls-5{fill:url(#linear-gradient-3);}.cls-6{fill:url(#Gradiente_sem_nome_11-2);}.cls-7{fill:url(#linear-gradient-4);}.cls-8{fill:url(#linear-gradient-5);}</style><linearGradient id="linear-gradient" x1="174.1" y1="-18089.87" x2="409.88" y2="-18089.87" gradientTransform="matrix(1, 0, 0, -1, 0, -17914.39)" gradientUnits="userSpaceOnUse"><stop offset="0" stop-color="#80d8ff"/><stop offset="0.16" stop-color="#76cdf9"/><stop offset="0.45" stop-color="#5aafe9"/><stop offset="0.82" stop-color="#2d7fce"/><stop offset="1" stop-color="#1565c0"/></linearGradient><linearGradient id="linear-gradient-2" x1="0" y1="-18089.87" x2="241.57" y2="-18089.87" xlink:href="#linear-gradient"/><linearGradient id="Gradiente_sem_nome_11" x1="161.15" y1="212.08" x2="114.43" y2="165.35" gradientUnits="userSpaceOnUse"><stop offset="0" stop-color="#80d8ff"/><stop offset="0.12" stop-color="#76cdf9"/><stop offset="0.34" stop-color="#5aafe9"/><stop offset="0.62" stop-color="#2d7fce"/><stop offset="0.76" stop-color="#1565c0"/></linearGradient><linearGradient id="linear-gradient-3" x1="91.43" y1="212.99" x2="170.92" y2="212.99" gradientTransform="matrix(1, 0, 0, 1, 0, 0)" xlink:href="#linear-gradient"/><linearGradient id="Gradiente_sem_nome_11-2" x1="220.75" y1="176.82" x2="295.68" y2="176.82" xlink:href="#Gradiente_sem_nome_11"/><linearGradient id="linear-gradient-4" x1="285.89" y1="145.98" x2="316.85" y2="145.98" gradientTransform="matrix(1, 0, 0, 1, 0, 0)" xlink:href="#linear-gradient"/><linearGradient id="linear-gradient-5" x1="196.99" y1="176.4" x2="227.95" y2="176.4" gradientTransform="matrix(1, 0, 0, 1, 0, 0)" xlink:href="#linear-gradient"/></defs><g id="Camada_2" data-name="Camada 2"><g id="Camada_1-2" data-name="Camada 1"><path class="cls-1" d="M508,124.77h54.62v11H521.12v33.7h38.37V180.3H521.12v45.89H508Z"/><path class="cls-1" d="M663.92,178.64H624.49v36.57h43.94v11h-57V124.77h54.77v11H624.49v32.05h39.43Z"/><path class="cls-1" d="M715.53,126.13A135.83,135.83,0,0,1,740.66,124c14,0,23,2.56,29.34,8.28,5.12,4.51,8,11.43,8,19.26,0,13.39-8.43,22.27-19.11,25.88v.45c7.82,2.71,12.49,9.93,14.9,20.46,3.31,14.15,5.71,23.93,7.82,27.84H768.05c-1.66-2.86-3.91-11.59-6.77-24.22-3-14-8.43-19.26-20.32-19.72H728.62v43.94H715.53Zm13.09,46.19H742c14,0,22.87-7.67,22.87-19.26,0-13.09-9.48-18.81-23.33-19-6.32,0-10.83.6-12.94,1.21Z"/><path class="cls-1" d="M826.59,226.19V124.77h14.29l32.5,51.31a288.94,288.94,0,0,1,18.21,33l.3-.15c-1.2-13.55-1.51-25.88-1.51-41.68V124.77h12.34V226.19H889.48l-32.2-51.46a322,322,0,0,1-19-33.86l-.45.15c.75,12.8,1,25,1,41.84v43.33Z"/><path class="cls-1" d="M972.1,194.29l-10.54,31.9H948l34.46-101.42h15.8l34.61,101.42h-14l-10.83-31.9Zm33.25-10.23-9.93-29.19c-2.26-6.62-3.76-12.64-5.27-18.51h-.3c-1.5,6-3.16,12.19-5.11,18.36l-9.93,29.34Z"/><path class="cls-1" d="M1077.88,226.19V124.77h14.3l32.5,51.31a287.22,287.22,0,0,1,18.2,33l.31-.15c-1.21-13.55-1.51-25.88-1.51-41.68V124.77H1154V226.19h-13.24l-32.2-51.46a320.17,320.17,0,0,1-19-33.86l-.45.15c.75,12.8,1,25,1,41.84v43.33Z"/><path class="cls-1" d="M1207,126.13a186.55,186.55,0,0,1,27.84-2.11c18.81,0,32.2,4.36,41.08,12.64s14.29,20,14.29,36.42-5.11,30.09-14.59,39.42-25.14,14.59-44.85,14.59a211.85,211.85,0,0,1-23.77-1.2Zm13.09,89.68a82.94,82.94,0,0,0,13.24.75c28,0,43.19-15.65,43.19-43,.15-23.93-13.39-39.13-41.08-39.13a74.49,74.49,0,0,0-15.35,1.36Z"/><path class="cls-1" d="M1424,174.43c0,34.91-21.22,53.42-47.1,53.42-26.79,0-45.6-20.77-45.6-51.46,0-32.21,20-53.27,47.1-53.27C1406.07,123.12,1424,144.34,1424,174.43Zm-78.7,1.65c0,21.67,11.74,41.08,32.35,41.08,20.77,0,32.5-19.11,32.5-42.13,0-20.16-10.53-41.23-32.35-41.23S1345.28,153.82,1345.28,176.08Z"/><path class="cls-1" d="M1546.16,124.77v42.44h49.06V124.77h13.24V226.19h-13.24V178.64h-49.06v47.55h-13.09V124.77Z"/><path class="cls-1" d="M1713.79,178.64h-39.42v36.57h43.94v11h-57V124.77h54.77v11h-41.68v32.05h39.42Z"/><path class="cls-1" d="M1778.5,124.77v60c0,22.72,10.08,32.35,23.62,32.35,15.05,0,24.68-9.93,24.68-32.35v-60H1840v59.14c0,31.15-16.4,43.94-38.37,43.94-20.77,0-36.41-11.89-36.41-43.34V124.77Z"/><path class="cls-1" d="M1891.06,210.24a46.36,46.36,0,0,0,23.47,6.62c13.39,0,21.22-7.07,21.22-17.3,0-9.48-5.42-14.9-19.11-20.16-16.56-5.87-26.79-14.45-26.79-28.74,0-15.8,13.09-27.54,32.81-27.54,10.38,0,17.9,2.41,22.41,5l-3.61,10.69A40.32,40.32,0,0,0,1922.2,134c-13.84,0-19.11,8.28-19.11,15.2,0,9.48,6.17,14.14,20.17,19.56,17.15,6.62,25.88,14.9,25.88,29.79,0,15.65-11.59,29.2-35.51,29.2-9.78,0-20.47-2.86-25.88-6.47Z"/><path class="cls-1" d="M2010.23,124.77V226.19h-13.09V124.77Z"/><path class="cls-2" d="M330.84,26V0h42.78c1.52,0,3.64.84,6.38,2.5s4.09,5.39,4.09,11.16v122.9a35,35,0,0,0,.92,7.06,27.75,27.75,0,0,0,2.95,8A23.46,23.46,0,0,0,393.2,158c2.12,1.82,13.34,2.73,16.68,2.73v23.67c-5.77.61-18.58,3.41-21.46,8.42a32.66,32.66,0,0,0-4.33,16.62V337.31q0,7.74-3.41,10.7a10.7,10.7,0,0,1-7.06,2.95H174.1V325H355.87V201.2a54.62,54.62,0,0,1,2.28-13.43A29.75,29.75,0,0,1,367.71,173a29.83,29.83,0,0,1-9.56-14.57,52.8,52.8,0,0,1-2.28-13.65V26Z"/><path class="cls-3" d="M54,26V144.76a52.73,52.73,0,0,1-2.27,13.65A29.92,29.92,0,0,1,42.17,173a29.84,29.84,0,0,1,9.57,14.79A54.52,54.52,0,0,1,54,201.2V325h25V351H36.26A10.72,10.72,0,0,1,29.2,348q-3.4-3-3.41-10.7V209.4a32.66,32.66,0,0,0-4.33-16.62c-2.88-5-15.69-7.81-21.46-8.42V160.69c3.34,0,14.56-.91,16.68-2.73a23.46,23.46,0,0,0,5.24-6.37,28.07,28.07,0,0,0,3-8,35.56,35.56,0,0,0,.91-7.06V13.66q0-8.66,4.1-11.16C32.62.84,34.74,0,36.26,0H241.57V26Z"/><rect class="cls-4" x="104.66" y="175.12" width="66.26" height="27.19"/><polygon class="cls-5" points="170.92 137.47 170.92 112.37 91.43 112.37 91.43 313.62 122.39 313.62 122.39 137.47 170.92 137.47"/><rect class="cls-6" x="220.75" y="162.58" width="74.94" height="28.48"/><polygon class="cls-7" points="285.89 44.44 285.89 119.01 285.89 162.22 285.89 190.98 285.89 224.68 285.89 247.52 316.85 247.52 316.85 44.44 285.89 44.44"/><polygon class="cls-8" points="227.95 162.22 227.95 119.01 227.95 105.28 197 105.28 197 247.52 227.95 247.52 227.95 224.68 227.95 190.98 227.95 162.22"/></g></g></svg>