<?xml version="1.0" encoding="utf-8"?>
<!-- Generator: Adobe Illustrator 24.1.1, SVG Export Plug-In . SVG Version: 6.00 Build 0)  -->
<svg version="1.1" id="Layer_1" xmlns="http://www.w3.org/2000/svg" xmlns:xlink="http://www.w3.org/1999/xlink" x="0px" y="0px"
	 viewBox="0 0 512 512" style="enable-background:new 0 0 512 512;" xml:space="preserve" fill='#ABAEB0'>
<g>
	<path d="M486.4,243.2l-25.6,0.1l0,0.5c0,29.6-7,58.8-20.3,85.2l0,0.1c-32.5,65-99,106.1-171.7,106.2h0h-0.6
		c-29.6,0-58.8-6.9-85.2-20.3c-6.1-3.1-13.2-3.6-19.6-1.4l-97.4,32.4l32.4-97.4c2.2-6.5,1.6-13.5-1.4-19.6
		c-13.3-26.4-20.3-55.6-20.3-85.2l0-0.5l0-0.1c0-72.7,41.1-139.2,106.2-171.7l0.1,0c26.4-13.3,55.6-20.3,85.2-20.3h0.2l0.3,0h12.8
		V25.6l-1.4,25.6c97.5,5.4,175.3,83.2,180.6,180.6l25.6-1.4h-25.6v12.8l0,0.1L486.4,243.2H512v-12.8l0-1.4
		C505.1,105.5,406.5,6.9,283,0l-1.4,0h-12.8v25.6L269.1,0l-0.9,0C230.6,0,193.6,8.8,160,25.8l0.1,0C77.7,66.9,25.6,151.1,25.6,243.2
		l0-0.1l0,0.6c0,37.6,8.8,74.7,25.8,108.3l22.8-11.5L50,332.4L1.3,478.3c-3.1,9.2-0.7,19.3,6.2,26.2c6.9,6.9,17,9.3,26.2,6.2
		L179.6,462l-8.1-24.3L160,460.6c33.6,17,70.7,25.8,108.3,25.8h0.6h0c92.1,0,176.3-52.1,217.4-134.5l0,0.1
		c16.9-33.6,25.8-70.7,25.8-108.3l0-0.6l0,0.1H486.4z"/>
</g>
</svg>
